<svg width="250" height="50" viewBox="0 0 250 50" fill="none" xmlns="http://www.w3.org/2000/svg">
<path d="M19.3 9C19.3 8.3 19.2 7.3 18.5 6.3C17.4 4.5 15.2 4.20001 14 4.20001C7.4 4.20001 6.10001 10.4 6.10001 14.5C6.10001 16.3 6.40001 19.6 8.40001 21.8C9.80001 23.3 11.6 24.1 14.8 24.1C17.6 24.1 18.6 23.8 19.2 23.6V17.9H13.9V13.4H25V27C23.3 27.6 20.5 28.5 15.1 28.5C8.90001 28.5 5.70001 27 3.60001 24.9C0.600006 21.9 0 17.6 0 14.8C0 5.20002 6.00001 0 14.2 0C17.7 0 21.3 1.00001 23.4 3.40001C25.2 5.50001 25.3 7.60001 25.4 9.10001H19.3V9Z" fill="currentColor"/>
<path d="M39.0992 8.40038C45.9992 8.40038 48.8992 13.1004 48.8992 18.4004C48.8992 23.7004 45.7992 28.5004 38.8992 28.5004C33.4992 28.5004 29.1992 25.2004 29.1992 18.5004C29.2992 13.9004 31.5992 8.40038 39.0992 8.40038ZM39.0992 24.6004C41.4992 24.6004 43.1992 23.1004 43.1992 18.1004C43.1992 15.6004 42.6992 12.1004 38.9992 12.1004C34.8992 12.1004 34.8992 16.8004 34.8992 18.5004C34.9992 22.8004 36.3992 24.6004 39.0992 24.6004ZM39.6992 5.80038H36.6992L39.7992 0.400391H44.7992L39.6992 5.80038Z" fill="currentColor"/>
<path d="M53.2 12.3998C53.2 11.1998 53.1 9.9998 53 8.7998H58.4L58.6 11.1998C59.2 10.3998 60.7 8.2998 64.5 8.2998C68.9 8.2998 70.1 10.9998 70.5 11.8998C72.1 8.89978 74.6 8.39978 76.6 8.39978C80.4 8.39978 82 10.6998 82.4 11.3998C83.4 13.0998 83.3 15.2998 83.3 16.9998V27.6998H77.7V16.4998C77.7 14.4998 77.4 12.1998 74.5 12.1998C71.2 12.1998 71.1 15.2998 71.1 18.0998V27.5998H65.5V16.2998C65.5 14.7998 65.5 12.0998 62.4 12.0998C58.9 12.0998 58.9 15.0998 58.9 16.3998V27.5998H53.3V12.3998H53.2Z" fill="currentColor"/>
<path d="M93.0008 19.6996C93.0008 20.8996 93.0008 24.7996 96.9008 24.7996C98.3008 24.7996 99.7008 24.2996 100.201 22.1996H105.301C105.201 23.0996 105.001 24.6996 103.501 26.2996C102.101 27.7996 99.6008 28.4996 96.9008 28.4996C95.3008 28.4996 92.2008 28.1996 90.2008 26.0996C88.5008 24.2996 87.8008 21.6996 87.8008 18.6996C87.8008 15.5996 88.6008 11.8996 91.7008 9.69962C93.2008 8.69962 95.0008 8.09961 97.0008 8.09961C99.7008 8.09961 102.901 9.19962 104.701 12.6996C106.001 15.2996 105.901 18.0996 105.801 19.5996H93.0008V19.6996ZM100.001 16.1996C100.001 15.2996 99.9008 11.9996 96.7008 11.9996C94.3008 11.9996 93.2008 13.9996 93.1008 16.1996H100.001Z" fill="currentColor"/>
<path d="M108.1 22.8998L117.7 12.4998H108.3V8.7998H123.8V13.5998L114.2 23.9998H124.2V27.7998H108.1V22.8998Z" fill="currentColor"/>
<path d="M128.199 0.700195H136.599C140.499 0.700195 143.799 1.0002 145.999 3.7002C147.399 5.4002 147.699 7.4002 147.699 8.8002C147.699 12.0002 146.399 14.6002 144.199 16.0002C142.199 17.3002 139.499 17.3002 137.999 17.3002H134.099V27.9002H128.199V0.700195ZM133.899 12.9002H136.199C138.099 12.9002 141.599 12.9002 141.599 8.8002C141.599 5.1002 138.499 5.10019 136.799 5.10019H133.899V12.9002Z" fill="currentColor"/>
<path d="M151.1 0.700195H156.7V27.8002H151.1V0.700195Z" fill="currentColor"/>
<path d="M172.9 27.8002C172.7 26.6002 172.7 25.8002 172.7 25.2002C170.6 28.2002 168.1 28.2002 167 28.2002C164.3 28.2002 163 27.4002 162.3 26.7002C161.2 25.6002 160.6 24.0002 160.6 22.5002C160.6 21.0002 161.1 18.2002 164.6 16.6002C166.9 15.5002 170.3 15.5002 172.1 15.5002C172.1 14.3002 172.1 13.7002 171.8 13.0002C171.3 11.6002 169.8 11.4002 169.3 11.4002C168.5 11.4002 167.7 11.7002 167.2 12.5002C166.8 13.1002 166.8 13.7002 166.8 14.2002H161.4C161.4 13.2002 161.6 11.2002 163.5 9.7002C165.2 8.5002 167.4 8.2002 169.2 8.2002C170.8 8.2002 174.1 8.50019 176 10.6002C177.3 12.1002 177.3 14.4002 177.3 15.3002V22.9002C177.3 24.5002 177.4 26.1002 177.8 27.7002H172.9V27.8002ZM166.1 21.9002C166.1 23.2002 167 24.6002 168.8 24.6002C169.8 24.6002 170.6 24.1002 171.2 23.5002C172.2 22.3002 172.3 20.8002 172.3 18.8002C168.6 18.6002 166.1 19.7002 166.1 21.9002Z" fill="currentColor"/>
<path d="M193.6 27.5002C191.8 28.0002 190.2 28.1002 189.3 28.1002C183.7 28.1002 183.7 24.6002 183.7 23.0002V12.6002H180.1V8.90018H183.7V5.2002L189.2 3.2002V8.90018H193.7V12.6002H189.2V21.2002C189.2 22.9002 189.2 24.0002 191.7 24.0002C192.5 24.0002 192.9 24.0002 193.6 23.9002V27.5002Z" fill="currentColor"/>
<path d="M200.7 19.6996C200.7 20.8996 200.7 24.7996 204.6 24.7996C206 24.7996 207.4 24.2996 207.9 22.1996H213C212.9 23.0996 212.7 24.6996 211.2 26.2996C209.8 27.7996 207.3 28.4996 204.6 28.4996C203 28.4996 199.9 28.1996 197.9 26.0996C196.2 24.2996 195.5 21.6996 195.5 18.6996C195.5 15.5996 196.3 11.8996 199.4 9.69962C200.9 8.69962 202.7 8.09961 204.7 8.09961C207.4 8.09961 210.6 9.19962 212.4 12.6996C213.7 15.2996 213.6 18.0996 213.5 19.5996H200.7V19.6996ZM207.8 16.1996C207.8 15.2996 207.7 11.9996 204.5 11.9996C202.1 11.9996 201 13.9996 200.9 16.1996H207.8Z" fill="currentColor"/>
<path d="M217.101 13.4997C217.101 12.5997 217.001 9.89972 216.801 8.79972H222.001L222.101 12.3997C222.801 10.7997 224.101 8.49971 228.601 8.69971V13.6997C223.001 13.1997 222.601 16.0997 222.601 18.3997V27.7997H217.101V13.4997Z" fill="currentColor"/>
<path d="M239.701 8.40039C246.601 8.40039 249.501 13.1004 249.501 18.4004C249.501 23.7004 246.401 28.5004 239.501 28.5004C234.101 28.5004 229.801 25.2004 229.801 18.5004C229.901 13.9004 232.301 8.40039 239.701 8.40039ZM239.801 24.6004C242.201 24.6004 243.901 23.1004 243.901 18.1004C243.901 15.6004 243.401 12.1004 239.701 12.1004C235.601 12.1004 235.601 16.8004 235.601 18.5004C235.601 22.8004 237.101 24.6004 239.801 24.6004Z" fill="currentColor"/>
<path d="M6.00038 39.5996H7.40039L11.3004 49.2996H9.80038L8.80038 46.7996H4.30038L3.30038 49.2996H1.90039L6.00038 39.5996ZM4.80038 45.6996H8.50038L6.70039 40.9996L4.80038 45.6996Z" fill="currentColor"/>
<path d="M14.4004 39.5996H17.9004C18.4004 39.5996 19.4004 39.5996 20.1004 40.0996C20.8004 40.5996 21.2004 41.2996 21.2004 42.0996C21.2004 42.7996 20.9004 43.3996 20.5004 43.7996C20.1004 44.1996 19.7004 44.3996 19.4004 44.3996C20.3004 44.5996 20.7004 45.0996 20.9004 46.2996C21.0004 47.3996 21.1004 48.2996 21.5004 49.2996H20.1004C19.9004 48.6996 19.8004 47.4996 19.7004 46.6996C19.5004 45.2996 19.2004 44.8996 17.6004 44.8996H15.9004V49.2996H14.6004V39.5996H14.4004ZM15.7004 43.7996H17.8004C17.9004 43.7996 18.7004 43.7996 19.1004 43.5996C19.3004 43.4996 19.8004 43.0996 19.8004 42.2996C19.8004 40.6996 18.4004 40.6996 17.9004 40.6996H15.8004V43.7996H15.7004Z" fill="currentColor"/>
<path d="M33.9 49.2994H32.3C32.1 49.2994 31.1 49.2994 30.5 49.3994C29.8 49.4994 29.1 49.4994 28.7 49.4994C26.4 49.4994 24.5 47.9994 24.5 44.4994C24.5 43.2994 24.7 41.7994 25.7 40.6994C26.5 39.7994 27.7 39.3994 28.9 39.3994C32.1 39.3994 33.1 41.9994 33.1 44.2994C33.1 45.1994 33 47.1994 31.3 48.4994C31.6 48.3994 32.1 48.2994 33 48.2994H33.7V49.2994H33.9ZM28.9 48.4994C31.7 48.4994 31.9 45.4994 31.9 44.4994C31.9 41.9994 30.8 40.4994 28.9 40.4994C26.2 40.4994 26 43.4994 26 44.5994C26 46.1994 26.6 48.4994 28.9 48.4994Z" fill="currentColor"/>
<path d="M38.3004 39.5996V45.5996C38.3004 46.5996 38.5004 47.0996 38.7004 47.2996C39.3004 48.0996 40.2004 48.2996 40.9004 48.2996C43.5004 48.2996 43.5004 46.1996 43.5004 45.5996V39.6996H44.8004V45.6996C44.8004 46.1996 44.8004 47.2996 44.0004 48.2996C43.0004 49.4996 41.6004 49.5996 40.9004 49.5996C40.0004 49.5996 38.4004 49.2996 37.5004 48.0996C37.2004 47.6996 36.9004 47.0996 36.9004 45.6996V39.7996H38.3004V39.5996Z" fill="currentColor"/>
<path d="M49 39.5996H50.3V49.2996H49V39.5996Z" fill="currentColor"/>
<path d="M56.7996 49.3002V40.8002H53.5996V39.7002H61.3996V40.8002H58.0996V49.3002H56.7996Z" fill="currentColor"/>
<path d="M64.0996 39.5996H70.1996V40.6996H65.4996V43.6996H69.9996V44.7996H65.4996V47.9996H70.2996V49.1996H64.0996V39.5996Z" fill="currentColor"/>
<path d="M80.0008 42.3C79.9008 42 79.8008 40.6 77.9008 40.6C75.6008 40.6 75.2008 43 75.2008 44.6C75.2008 46.4 75.7008 48.4 77.9008 48.4C78.5008 48.4 79.1008 48.3 79.5008 47.8C79.8008 47.4 79.9008 47 80.0008 46.8H81.5008C81.3008 48.7 79.5008 49.5 77.9008 49.5C74.5008 49.5 73.8008 46.5 73.8008 44.6C73.8008 42.6 74.6008 39.5 78.0008 39.5C79.4008 39.5 81.3008 40 81.5008 42.2H80.0008V42.3Z" fill="currentColor"/>
<path d="M87.2 49.3002V40.8002H84V39.7002H91.8V40.8002H88.6V49.3002H87.2Z" fill="currentColor"/>
<path d="M96.1012 39.5996V45.5996C96.1012 46.5996 96.3012 47.0996 96.5012 47.2996C97.1012 48.0996 98.0012 48.2996 98.7012 48.2996C101.301 48.2996 101.301 46.1996 101.301 45.5996V39.6996H102.601V45.6996C102.601 46.1996 102.601 47.2996 101.801 48.2996C100.801 49.4996 99.4012 49.5996 98.7012 49.5996C97.8012 49.5996 96.2012 49.2996 95.3012 48.0996C95.0012 47.6996 94.7012 47.0996 94.7012 45.6996V39.7996H96.1012V39.5996Z" fill="currentColor"/>
<path d="M106.801 39.5996H110.301C110.801 39.5996 111.801 39.5996 112.501 40.0996C113.201 40.5996 113.601 41.2996 113.601 42.0996C113.601 42.7996 113.301 43.3996 112.901 43.7996C112.501 44.1996 112.101 44.3996 111.801 44.3996C112.701 44.5996 113.101 45.0996 113.301 46.2996C113.401 47.3996 113.501 48.2996 113.901 49.2996H112.501C112.301 48.6996 112.201 47.4996 112.101 46.6996C111.901 45.2996 111.601 44.8996 110.001 44.8996H108.101V49.2996H106.801V39.5996ZM108.101 43.7996H110.201C110.301 43.7996 111.101 43.7996 111.501 43.5996C111.701 43.4996 112.201 43.0996 112.201 42.2996C112.201 40.6996 110.801 40.6996 110.301 40.6996H108.101V43.7996Z" fill="currentColor"/>
<path d="M120.5 39.5996H121.9L125.8 49.2996H124.3L123.3 46.7996H118.8L117.8 49.2996H116.4L120.5 39.5996ZM119.2 45.6996H122.9L121.1 40.9996L119.2 45.6996Z" fill="currentColor"/>
<path d="M142.3 43.0998C142.3 44.9998 142 45.8998 141.1 47.0998L143.4 49.2998H141.5L140.2 48.0998C139.3 48.9998 138.2 49.4998 136.8 49.4998C134.7 49.4998 133.5 48.2998 133.5 46.6998C133.5 45.1998 134.5 44.3998 135.5 43.5998C135.1 43.1998 134.4 42.4998 134.4 41.3998C134.4 40.0998 135.3 39.2998 137 39.2998C138.2 39.2998 138.7 39.5998 139 39.8998C139.4 40.1998 139.6 40.6998 139.6 41.1998C139.6 42.5998 138.3 43.4998 137.7 43.8998L140.1 46.1998C140.6 45.3998 140.8 44.6998 140.8 42.9998H142.3V43.0998ZM136.6 44.4998C135.5 45.2998 135.1 45.9998 135.1 46.6998C135.1 47.9998 136.3 48.3998 137.2 48.3998C138.4 48.3998 139.1 47.6998 139.5 47.2998L136.6 44.4998ZM138.4 41.2998C138.4 40.8998 138.1 40.3998 137.3 40.3998C136.6 40.3998 136.1 40.8998 136.1 41.3998C136.1 41.8998 136.5 42.4998 137.1 42.9998C137.4 42.7998 138.4 42.1998 138.4 41.2998Z" fill="currentColor"/>
<path d="M153.201 39.5996V45.5996C153.201 46.5996 153.401 47.0996 153.601 47.2996C154.201 48.0996 155.101 48.2996 155.801 48.2996C158.401 48.2996 158.401 46.1996 158.401 45.5996V39.6996H159.701V45.6996C159.701 46.1996 159.701 47.2996 158.901 48.2996C157.901 49.4996 156.501 49.5996 155.801 49.5996C154.901 49.5996 153.301 49.2996 152.401 48.0996C152.101 47.6996 151.801 47.0996 151.801 45.6996V39.7996H153.201V39.5996Z" fill="currentColor"/>
<path d="M163.9 39.5996H167.4C167.9 39.5996 168.9 39.5996 169.6 40.0996C170.3 40.5996 170.7 41.2996 170.7 42.0996C170.7 42.7996 170.4 43.3996 170 43.7996C169.6 44.1996 169.2 44.3996 168.9 44.3996C169.8 44.5996 170.2 45.0996 170.4 46.2996C170.5 47.3996 170.6 48.2996 171 49.2996H169.6C169.4 48.6996 169.3 47.4996 169.2 46.6996C169 45.2996 168.7 44.8996 167.1 44.8996H165.4V49.2996H164.1V39.5996H163.9ZM165.2 43.7996H167.3C167.4 43.7996 168.2 43.7996 168.6 43.5996C168.8 43.4996 169.3 43.0996 169.3 42.2996C169.3 40.6996 167.9 40.6996 167.4 40.6996H165.3V43.7996H165.2Z" fill="currentColor"/>
<path d="M174.6 39.5996H178.1C179.3 39.5996 179.9 39.6996 180.5 40.2996C180.9 40.6996 181.2 41.2996 181.2 41.9996C181.2 43.5996 180 43.9996 179.6 44.1996C180.2 44.3996 181.5 44.7996 181.5 46.5996C181.5 47.8996 180.7 48.5996 180.3 48.7996C179.6 49.1996 178.9 49.1996 178.1 49.1996H174.6V39.5996ZM175.9 43.6996H177.8C178.3 43.6996 179.8 43.6996 179.8 42.1996C179.8 40.6996 178.6 40.6996 177.8 40.6996H175.9V43.6996ZM175.9 48.1996H178.2C179.3 48.1996 180.1 47.5996 180.1 46.4996C180.1 45.4996 179.4 44.7996 178.2 44.7996H175.9V48.1996Z" fill="currentColor"/>
<path d="M188.2 39.5996H189.6L193.5 49.2996H192.1L191.1 46.7996H186.6L185.6 49.2996H184.1L188.2 39.5996ZM187 45.6996H190.7L188.9 40.9996L187 45.6996Z" fill="currentColor"/>
<path d="M196.6 39.5996H198.5L203.3 47.5996V39.5996H204.5V49.2996H202.8L197.9 41.0996V49.2996H196.7V39.5996H196.6Z" fill="currentColor"/>
<path d="M208.701 39.5996H210.001V49.2996H208.701V39.5996Z" fill="currentColor"/>
<path d="M215.001 46.5C215.001 47.2 215.101 48.4 217.301 48.4C219.301 48.4 219.601 47.2 219.601 46.7C219.601 45.6 218.701 45.4 217.401 45.1C215.901 44.7 215.301 44.6 214.801 44.2C214.001 43.7 213.801 42.9 213.801 42.3C213.801 40.3 215.701 39.5 217.501 39.5C218.101 39.5 219.401 39.6 220.201 40.5C220.701 41.1 220.801 41.7 220.801 42.1H219.401C219.301 40.9 218.301 40.6 217.401 40.6C216.101 40.6 215.301 41.2 215.301 42.2C215.301 43.1 215.901 43.4 217.001 43.6C219.301 44.2 219.601 44.2 220.101 44.6C221.001 45.2 221.101 46.1 221.101 46.5C221.101 48.2 219.801 49.5 217.301 49.5C216.601 49.5 215.101 49.4 214.301 48.4C213.801 47.7 213.701 46.9 213.701 46.4H215.001V46.5Z" fill="currentColor"/>
<path d="M224.701 39.5996H227.101L229.801 47.5996L232.601 39.5996H234.801V49.2996H233.501V40.5996L230.301 49.2996H229.101L226.001 40.5996V49.2996H224.701V39.5996Z" fill="currentColor"/>
<path d="M239.9 40.6994C240.9 39.5994 242.2 39.3994 243.1 39.3994C245.8 39.3994 247.5 41.0994 247.5 44.3994C247.5 46.9994 246.5 49.5994 243 49.5994C239.7 49.5994 238.6 47.2994 238.6 44.5994C238.7 43.4994 238.9 41.7994 239.9 40.6994ZM240.9 47.4994C241.5 48.1994 242.3 48.3994 243 48.3994C243.8 48.3994 244.6 48.1994 245.1 47.4994C245.9 46.4994 246 44.9994 246 44.2994C246 42.0994 245.3 40.3994 243.1 40.3994C240.6 40.3994 240 42.3994 240 44.3994C240.1 45.4994 240.3 46.6994 240.9 47.4994Z" fill="currentColor"/>
</svg>
