<svg width="414" height="60" viewBox="0 0 414 60" fill="none" xmlns="http://www.w3.org/2000/svg">
<path d="M9.59961 2L9.89961 2.3V48.9H34.1996L34.4996 49.3V58L34.1996 58.4H0.899612L0.599609 58V2.3L0.899612 2H9.59961Z" fill="currentColor"/>
<path d="M88.6008 2L89.0008 2.4V11L88.6008 11.4H60.1008V25.1H84.6008L85.0008 25.5V34.1L84.6008 34.5H60.1008V48.9H88.4008L88.8008 49.3V58L88.4008 58.4H51.2008L50.8008 58V2.4L51.2008 2H88.6008Z" fill="currentColor"/>
<path d="M159.2 2L160 2.4L178.7 25.3L197.3 2.4L198.1 2H206.4L206.9 2.4V58L206.4 58.4H197.8L197.4 58V16.3L179.1 38.7H178.3L159.8 16.3V58L159.4 58.4H150.9L150.5 58V2.4L150.9 2H159.2Z" fill="currentColor"/>
<path d="M235.001 30.2C235.001 41.2 243.501 49.8001 254.201 49.8001C264.801 49.8001 273.401 41.2 273.401 30.2C273.401 19.2 264.901 10.6 254.201 10.6C243.501 10.6 235.001 19.2 235.001 30.2ZM283.901 30.2C283.901 46.5 270.501 59.6 254.101 59.6C237.601 59.6 224.301 46.6 224.301 30.2C224.301 13.9 237.601 0.800049 254.101 0.800049C270.601 0.800049 283.901 13.8 283.901 30.2Z" fill="currentColor"/>
<path d="M310.8 2L311.6 2.4L342.6 42.8V2.4L343 2H351.7L352.1 2.4V58L351.7 58.4H342.6L341.8 58L310.8 17.5V58L310.4 58.4H301.9L301.5 58V2.4L301.9 2H310.8Z" fill="currentColor"/>
<path d="M413.001 2L413.401 2.4V11L413.001 11.4H395.501V58L395.101 58.4H386.601L386.201 58V11.4H368.701L368.301 11V2.4L368.701 2H413.001Z" fill="currentColor"/>
</svg>
