<svg
   xmlns:dc="http://purl.org/dc/elements/1.1/"
   xmlns:cc="http://creativecommons.org/ns#"
   xmlns:rdf="http://www.w3.org/1999/02/22-rdf-syntax-ns#"
   xmlns:svg="http://www.w3.org/2000/svg"
   xmlns="http://www.w3.org/2000/svg"
   viewBox="0 0 399.98267 142.20132"
   height="142.20132"
   width="399.98267"
   xml:space="preserve"
   id="svg2"
   version="1.1"><metadata
     id="metadata8"><rdf:RDF><cc:Work
         rdf:about=""><dc:format>image/svg+xml</dc:format><dc:type
           rdf:resource="http://purl.org/dc/dcmitype/StillImage" /></cc:Work></rdf:RDF></metadata><defs
     id="defs6"><clipPath
       id="clipPath18"
       clipPathUnits="userSpaceOnUse"><path
         id="path16"
         d="M 0,106.651 H 299.987 V 0 H 0 Z" /></clipPath></defs><g
     transform="matrix(1.3333333,0,0,-1.3333333,0,142.20133)"
     id="g10"><g
       id="g12"><g
         clip-path="url(#clipPath18)"
         id="g14"><g
           transform="translate(46.7996,19.979)"
           id="g20"><path
             id="path22"
             style="fill:var(--ivory);fill-opacity:1;fill-rule:nonzero;stroke:none"
             d="m 0,0 v 66.486 c 0,1.083 0.976,1.883 2.05,1.715 C 19.469,65.503 32.887,51.367 32.887,33.241 32.887,15.116 19.469,0.98 2.05,-1.719 0.976,-1.882 0,-1.083 0,0 m -39.39,33.241 c 0,18.126 13.417,32.262 30.841,34.96 1.069,0.168 2.046,-0.632 2.046,-1.715 V 0 c 0,-1.083 -0.977,-1.882 -2.046,-1.719 -17.424,2.699 -30.841,16.835 -30.841,34.96 m 78.78,0 C 39.39,55.001 22.997,70.833 1.916,73.394 0.829,73.524 0,74.41 0,75.504 V 85.752 H -6.503 V 75.504 c 0,-1.094 -0.829,-1.98 -1.916,-2.11 -21.081,-2.561 -37.474,-18.393 -37.474,-40.153 0,-21.759 16.393,-37.591 37.474,-40.149 1.087,-0.133 1.916,-1.02 1.916,-2.113 V -19.265 H 0 v 10.244 c 0,1.093 0.829,1.98 1.916,2.113 21.081,2.558 37.474,18.39 37.474,40.149" /></g><g
           transform="translate(107.7367,75.1905)"
           id="g24"><path
             id="path26"
             style="fill:var(--ivory);fill-opacity:1;fill-rule:nonzero;stroke:none"
             d="m 0,0 h 8.569 c 4.389,0 6.66,2.375 6.66,6.091 0,3.872 -2.374,5.989 -6.556,5.989 H 0 Z M -7.227,18.223 H 9.396 c 4.336,0 7.64,-1.291 9.756,-3.614 2.066,-2.219 3.253,-5.007 3.253,-8.414 0,-7.228 -4.594,-11.925 -12.699,-11.925 H 0 v -14.455 h -7.227 z" /></g><path
           id="path28"
           style="fill:var(--ivory);fill-opacity:1;fill-rule:nonzero;stroke:none"
           d="m 133.447,93.413 h 6.608 V 55.005 h -6.608 z" /><g
           transform="translate(179.652,78.5459)"
           id="g30"><path
             id="path32"
             style="fill:var(--ivory);fill-opacity:1;fill-rule:nonzero;stroke:none"
             d="m 0,0 h 0.155 c 1.807,3.046 4.698,4.749 8.569,4.749 5.937,0 9.499,-3.665 9.499,-9.602 V -23.54 h -6.556 v 17.603 c 0,3.252 -1.91,5.266 -5.266,5.266 -3.665,0 -6.246,-2.788 -6.246,-6.711 V -23.54 H -6.401 V 4.027 l 6.401,0 z" /></g><g
           transform="translate(207.8396,71.2669)"
           id="g34"><path
             id="path36"
             style="fill:var(--ivory);fill-opacity:1;fill-rule:nonzero;stroke:none"
             d="M 0,0 H 13.732 C 13.474,4.543 11.047,7.279 7.072,7.279 2.788,7.279 0.568,4.337 0,0 m -6.608,-2.529 c 0,8.207 5.524,14.557 13.68,14.557 4.027,0 7.176,-1.394 9.499,-3.872 2.685,-2.839 3.975,-7.175 3.924,-12.286 H -0.103 c 0.464,-4.749 2.994,-7.95 7.589,-7.95 3.149,0 5.213,1.342 6.091,3.614 h 6.401 c -1.342,-4.956 -5.782,-8.621 -12.544,-8.621 -8.776,0 -14.042,6.401 -14.042,14.558" /></g><g
           transform="translate(107.7367,33.2461)"
           id="g38"><path
             id="path40"
             style="fill:var(--ivory);fill-opacity:1;fill-rule:nonzero;stroke:none"
             d="m 0,0 h 8.569 c 4.389,0 6.66,2.375 6.66,6.091 0,3.872 -2.374,5.989 -6.556,5.989 H 0 Z M -7.227,18.223 H 9.396 c 4.336,0 7.64,-1.29 9.756,-3.614 2.066,-2.219 3.253,-5.007 3.253,-8.414 0,-7.228 -4.594,-11.925 -12.699,-11.925 H 0 v -14.455 h -7.227 z" /></g><g
           transform="translate(149.0895,23.0763)"
           id="g42"><path
             id="path44"
             style="fill:var(--ivory);fill-opacity:1;fill-rule:nonzero;stroke:none"
             d="M 0,0 V 4.078 C -1.29,3.252 -3.356,2.684 -5.369,2.271 c -4.026,-0.774 -6.349,-1.6 -6.349,-4.646 0,-2.942 2.219,-3.82 4.749,-3.82 C -2.478,-6.195 0,-3.098 0,0 m -0.104,-10.015 -0.103,3.562 c -1.806,-2.426 -4.284,-4.233 -8.673,-4.233 -5.368,0 -9.395,2.787 -9.395,8.156 0,6.247 4.75,7.744 11.306,8.518 4.542,0.568 6.814,1.291 6.814,3.769 0,2.374 -1.652,3.975 -4.956,3.975 -3.665,0 -5.472,-1.704 -5.627,-4.44 h -6.195 c 0.207,4.698 3.924,8.982 11.77,8.982 3.15,0 5.576,-0.464 7.382,-1.6 2.582,-1.548 3.924,-4.181 3.924,-7.846 v -18.843 z" /></g><g
           transform="translate(162.0991,65.0206)"
           id="g46"><path
             id="path48"
             style="fill:var(--ivory);fill-opacity:1;fill-rule:nonzero;stroke:none"
             d="M 0,0 V 4.078 C -1.29,3.252 -3.356,2.684 -5.369,2.271 c -4.026,-0.774 -6.349,-1.6 -6.349,-4.646 0,-2.942 2.219,-3.82 4.749,-3.82 C -2.478,-6.195 0,-3.098 0,0 m -0.104,-10.015 -0.103,3.562 c -1.806,-2.426 -4.284,-4.233 -8.673,-4.233 -5.368,0 -9.395,2.787 -9.395,8.156 0,6.247 4.75,7.744 11.306,8.518 4.542,0.568 6.814,1.291 6.814,3.769 0,2.374 -1.652,3.975 -4.956,3.975 -3.665,0 -5.472,-1.704 -5.627,-4.44 h -6.195 c 0.207,4.698 3.924,8.982 11.77,8.982 3.15,0 5.576,-0.464 7.382,-1.6 2.582,-1.548 3.924,-4.181 3.924,-7.846 v -18.843 z" /></g><g
           transform="translate(166.5905,35.6722)"
           id="g50"><path
             id="path52"
             style="fill:var(--ivory);fill-opacity:1;fill-rule:nonzero;stroke:none"
             d="m 0,0 h 0.156 c 1.754,3.562 4.387,5.369 7.898,5.369 0.774,0 1.29,-0.052 1.755,-0.258 V -0.774 H 9.602 C 8.983,-0.619 8.466,-0.568 7.795,-0.568 3.459,-0.516 0.207,-3.459 0.207,-8.776 V -22.611 H -6.349 V 4.956 l 6.349,0 z" /></g><g
           transform="translate(178.2586,40.6281)"
           id="g54"><path
             id="path56"
             style="fill:var(--ivory);fill-opacity:1;fill-rule:nonzero;stroke:none"
             d="m 0,0 h 4.233 v 7.164 l 6.453,1.612 V 0 h 5.524 v -4.491 h -5.524 v -15.436 c 0,-2.013 1.084,-2.581 2.942,-2.581 0.671,0 1.601,0.103 2.117,0.207 h 0.31 v -5.111 c -1.084,-0.206 -2.582,-0.413 -4.337,-0.413 -4.439,0 -7.485,1.6 -7.485,6.453 V -4.491 H 0 Z" /></g><g
           transform="translate(229.7297,82.5724)"
           id="g58"><path
             id="path60"
             style="fill:var(--ivory);fill-opacity:1;fill-rule:nonzero;stroke:none"
             d="m 0,0 h 4.233 v 7.164 l 6.453,1.612 V 0 h 5.524 v -4.491 h -5.524 v -15.436 c 0,-2.013 1.084,-2.581 2.942,-2.581 0.671,0 1.601,0.103 2.117,0.207 h 0.31 v -5.111 c -1.084,-0.206 -2.582,-0.413 -4.337,-0.413 -4.439,0 -7.485,1.6 -7.485,6.453 V -4.491 H 0 Z" /></g><g
           transform="translate(204.432,36.6015)"
           id="g62"><path
             id="path64"
             style="fill:var(--ivory);fill-opacity:1;fill-rule:nonzero;stroke:none"
             d="m 0,0 h 0.155 c 1.807,3.046 4.698,4.749 8.569,4.749 5.937,0 9.499,-3.665 9.499,-9.602 V -23.54 h -6.556 v 17.603 c 0,3.252 -1.91,5.266 -5.266,5.266 -3.665,0 -6.246,-2.788 -6.246,-6.711 V -23.54 H -6.401 V 4.027 l 6.401,0 z" /></g><g
           transform="translate(232.6189,29.3226)"
           id="g66"><path
             id="path68"
             style="fill:var(--ivory);fill-opacity:1;fill-rule:nonzero;stroke:none"
             d="M 0,0 H 13.732 C 13.474,4.543 11.047,7.279 7.072,7.279 2.788,7.279 0.568,4.337 0,0 m -6.608,-2.529 c 0,8.207 5.524,14.557 13.68,14.557 4.027,0 7.176,-1.394 9.499,-3.872 2.685,-2.839 3.975,-7.175 3.924,-12.286 H -0.103 c 0.464,-4.749 2.994,-7.95 7.589,-7.95 3.149,0 5.213,1.342 6.091,3.614 h 6.401 c -1.342,-4.956 -5.782,-8.621 -12.544,-8.621 -8.776,0 -14.042,6.401 -14.042,14.558" /></g><g
           transform="translate(263.0266,35.6722)"
           id="g70"><path
             id="path72"
             style="fill:var(--ivory);fill-opacity:1;fill-rule:nonzero;stroke:none"
             d="m 0,0 h 0.155 c 1.755,3.562 4.388,5.369 7.899,5.369 0.774,0 1.29,-0.052 1.755,-0.258 V -0.774 H 9.602 C 8.983,-0.619 8.466,-0.568 7.795,-0.568 3.459,-0.516 0.207,-3.459 0.207,-8.776 V -22.611 H -6.349 V 4.956 l 6.349,0 z" /></g><g
           transform="translate(274.3331,21.5273)"
           id="g74"><path
             id="path76"
             style="fill:var(--ivory);fill-opacity:1;fill-rule:nonzero;stroke:none"
             d="m 0,0 h 6.298 c 0.516,-3.304 3.046,-4.698 6.557,-4.698 3.613,0 5.316,1.549 5.316,3.769 0,2.736 -2.787,3.252 -7.123,4.078 -5.162,1.033 -10.066,2.22 -10.066,8.467 0,5.214 4.439,8.207 10.892,8.207 7.33,0 10.996,-3.303 11.667,-8.104 h -6.247 c -0.464,2.374 -2.22,3.665 -5.472,3.665 -3.046,0 -4.646,-1.394 -4.646,-3.304 0,-2.426 2.839,-2.891 7.021,-3.665 5.214,-0.981 10.376,-2.22 10.376,-8.931 0,-5.782 -4.956,-8.828 -11.77,-8.828 C 4.956,-9.344 0.413,-5.575 0,0" /></g></g></g></g></svg>