<svg
   xmlns:dc="http://purl.org/dc/elements/1.1/"
   xmlns:cc="http://creativecommons.org/ns#"
   xmlns:rdf="http://www.w3.org/1999/02/22-rdf-syntax-ns#"
   xmlns:svg="http://www.w3.org/2000/svg"
   xmlns="http://www.w3.org/2000/svg"
   viewBox="0 0 310.75732 20.665199"
   height="20.665199"
   width="310.75732"
   xml:space="preserve"
   id="svg2"
   version="1.1"><metadata
     id="metadata8"><rdf:RDF><cc:Work
         rdf:about=""><dc:format>image/svg+xml</dc:format><dc:type
           rdf:resource="http://purl.org/dc/dcmitype/StillImage" /></cc:Work></rdf:RDF></metadata><defs
     id="defs6"><clipPath
       id="clipPath18"
       clipPathUnits="userSpaceOnUse"><path
         id="path16"
         d="M 0,15.499 H 233.068 V 0 H 0 Z" /></clipPath></defs><g
     transform="matrix(1.3333333,0,0,-1.3333333,0,20.6652)"
     id="g10"><g
       id="g12"><g
         clip-path="url(#clipPath18)"
         id="g14"><g
           transform="translate(5.5702,0.1561)"
           id="g20"><path
             id="path22"
             style="fill:var(--ivory);fill-opacity:1;fill-rule:nonzero;stroke:none"
             d="m 0,0 c -2.261,0 -3.978,0.481 -5.443,1.969 l 1.884,1.884 C -2.617,2.91 -1.34,2.597 0.042,2.597 1.759,2.597 2.68,3.245 2.68,4.438 2.68,4.962 2.533,5.401 2.219,5.694 1.926,5.967 1.591,6.113 0.9,6.218 l -1.8,0.251 c -1.277,0.188 -2.219,0.587 -2.889,1.235 -0.712,0.712 -1.068,1.675 -1.068,2.931 0,2.659 1.968,4.522 5.192,4.522 2.052,0 3.538,-0.503 4.815,-1.737 L 3.308,11.599 c -0.942,0.899 -2.073,1.025 -3.057,1.025 -1.549,0 -2.303,-0.858 -2.303,-1.884 0,-0.377 0.126,-0.775 0.44,-1.068 C -1.319,9.4 -0.837,9.17 -0.23,9.086 L 1.528,8.835 C 2.889,8.646 3.748,8.27 4.375,7.684 5.171,6.93 5.527,5.841 5.527,4.522 5.527,1.633 3.12,0 0,0" /></g><g
           transform="translate(19.9515,12.5916)"
           id="g24"><path
             id="path26"
             style="fill:var(--ivory);fill-opacity:1;fill-rule:nonzero;stroke:none"
             d="M 0,0 V -12.31 H -2.91 V 0 H -6.804 V 2.596 H 3.894 V 0 Z" /></g><g
           transform="translate(31.8832,0.1561)"
           id="g28"><path
             id="path30"
             style="fill:var(--ivory);fill-opacity:1;fill-rule:nonzero;stroke:none"
             d="m 0,0 c -3.057,0 -5.485,2.073 -5.485,5.234 v 9.797 h 2.91 V 5.339 c 0,-1.717 1.005,-2.742 2.575,-2.742 1.57,0 2.596,1.025 2.596,2.742 v 9.692 H 5.485 V 5.234 C 5.485,2.073 3.057,0 0,0" /></g><g
           transform="translate(48.3158,11.6707)"
           id="g32"><path
             id="path34"
             style="fill:var(--ivory);fill-opacity:1;fill-rule:nonzero;stroke:none"
             d="m 0,0 c -0.502,0.606 -1.172,0.921 -2.177,0.921 h -2.198 v -9.714 h 2.198 c 1.005,0 1.675,0.314 2.177,0.921 0.544,0.67 0.628,1.738 0.628,3.999 C 0.628,-1.612 0.544,-0.67 0,0 m 2.031,-9.965 c -0.984,-0.984 -2.387,-1.424 -3.936,-1.424 h -5.38 V 3.517 h 5.38 c 1.549,0 2.952,-0.44 3.936,-1.423 1.675,-1.675 1.507,-3.727 1.507,-5.967 0,-2.24 0.168,-4.417 -1.507,-6.092" /></g><path
           id="path36"
           style="fill:var(--ivory);fill-opacity:1;fill-rule:nonzero;stroke:none"
           d="m 55.244,15.187 h 2.91 V 0.282 h -2.91 z" /><g
           transform="translate(68.9139,11.9217)"
           id="g38"><path
             id="path40"
             style="fill:var(--ivory);fill-opacity:1;fill-rule:nonzero;stroke:none"
             d="m 0,0 c -0.419,0.481 -1.068,0.796 -1.863,0.796 -0.796,0 -1.466,-0.315 -1.885,-0.796 -0.565,-0.628 -0.711,-1.319 -0.711,-4.187 0,-2.868 0.146,-3.559 0.711,-4.187 0.419,-0.481 1.089,-0.795 1.885,-0.795 0.795,0 1.444,0.314 1.863,0.795 0.565,0.628 0.732,1.319 0.732,4.187 C 0.732,-1.319 0.565,-0.628 0,0 m 2.156,-10.133 c -1.047,-1.046 -2.323,-1.633 -4.019,-1.633 -1.696,0 -2.994,0.587 -4.041,1.633 -1.507,1.508 -1.465,3.371 -1.465,5.946 0,2.575 -0.042,4.438 1.465,5.946 1.047,1.047 2.345,1.633 4.041,1.633 1.696,0 2.972,-0.586 4.019,-1.633 1.508,-1.508 1.487,-3.371 1.487,-5.946 0,-2.575 0.021,-4.438 -1.487,-5.946" /></g><g
           transform="translate(86.246,11.8172)"
           id="g42"><path
             id="path44"
             style="fill:var(--ivory);fill-opacity:1;fill-rule:nonzero;stroke:none"
             d="M 0,0 -2.324,-6.615 H 2.261 Z M 3.915,-11.535 2.889,-8.541 H -2.994 L -4.02,-11.535 H -6.427 L -0.963,3.37 h 1.821 l 5.464,-14.905 z" /></g><g
           transform="translate(100.7108,13.1571)"
           id="g46"><path
             id="path48"
             style="fill:var(--ivory);fill-opacity:1;fill-rule:nonzero;stroke:none"
             d="M 0,0 H -3.35 V -4.669 H 0 c 1.507,0 2.533,0.858 2.533,2.324 C 2.533,-0.88 1.507,0 0,0 m 2.617,-12.875 -3.14,6.28 H -3.35 v -6.28 H -5.611 V 2.03 h 5.778 c 2.827,0 4.627,-1.821 4.627,-4.354 0,-2.135 -1.298,-3.496 -2.973,-3.956 l 3.433,-6.595 z" /></g><g
           transform="translate(114.2753,13.1571)"
           id="g50"><path
             id="path52"
             style="fill:var(--ivory);fill-opacity:1;fill-rule:nonzero;stroke:none"
             d="M 0,0 V -12.875 H -2.261 V 0 H -6.364 V 2.03 H 4.103 l 0,-2.03 z" /></g><g
           transform="translate(129.682,0.2821)"
           id="g54"><path
             id="path56"
             style="fill:var(--ivory);fill-opacity:1;fill-rule:nonzero;stroke:none"
             d="M 0,0 V 6.511 H -6.05 V 0 H -8.311 V 14.905 H -6.05 V 8.541 H 0 v 6.364 H 2.262 V 0 Z" /></g><g
           transform="translate(141.3627,0.1561)"
           id="g58"><path
             id="path60"
             style="fill:var(--ivory);fill-opacity:1;fill-rule:nonzero;stroke:none"
             d="m 0,0 c -3.035,0 -5.338,2.073 -5.338,5.15 v 9.881 h 2.261 V 5.255 c 0,-1.988 1.215,-3.224 3.077,-3.224 1.863,0 3.099,1.236 3.099,3.224 v 9.776 h 2.26 V 5.15 C 5.359,2.073 3.036,0 0,0" /></g><g
           transform="translate(156.4135,13.1571)"
           id="g62"><path
             id="path64"
             style="fill:var(--ivory);fill-opacity:1;fill-rule:nonzero;stroke:none"
             d="M 0,0 H -3.35 V -4.669 H 0 c 1.507,0 2.533,0.858 2.533,2.324 C 2.533,-0.88 1.507,0 0,0 m 2.617,-12.875 -3.14,6.28 H -3.35 v -6.28 H -5.61 V 2.03 h 5.777 c 2.826,0 4.627,-1.821 4.627,-4.354 0,-2.135 -1.298,-3.496 -2.973,-3.956 l 3.434,-6.595 z" /></g><g
           transform="translate(175.1898,0.1561)"
           id="g66"><path
             id="path68"
             style="fill:var(--ivory);fill-opacity:1;fill-rule:nonzero;stroke:none"
             d="m 0,0 c -1.549,0 -2.889,0.565 -3.914,1.592 -1.466,1.465 -1.445,3.119 -1.445,5.987 0,2.867 -0.021,4.522 1.445,5.987 1.025,1.026 2.365,1.591 3.914,1.591 2.743,0 4.795,-1.612 5.317,-4.585 H 3.015 C 2.659,12.08 1.654,13.126 0,13.126 c -0.879,0 -1.675,-0.335 -2.198,-0.899 -0.733,-0.796 -0.9,-1.655 -0.9,-4.648 0,-2.994 0.167,-3.852 0.9,-4.647 C -1.675,2.366 -0.879,2.031 0,2.031 c 1.654,0 2.68,1.047 3.036,2.554 H 5.317 C 4.815,1.612 2.701,0 0,0" /></g><g
           transform="translate(188.3783,11.8172)"
           id="g70"><path
             id="path72"
             style="fill:var(--ivory);fill-opacity:1;fill-rule:nonzero;stroke:none"
             d="M 0,0 -2.324,-6.615 H 2.261 Z M 3.915,-11.535 2.889,-8.541 H -2.994 L -4.02,-11.535 H -6.427 L -0.963,3.37 h 1.821 l 5.464,-14.905 z" /></g><g
           transform="translate(201.1888,0.1561)"
           id="g74"><path
             id="path76"
             style="fill:var(--ivory);fill-opacity:1;fill-rule:nonzero;stroke:none"
             d="m 0,0 c -2.239,0 -3.852,0.523 -5.275,1.969 l 1.507,1.486 c 1.088,-1.089 2.282,-1.424 3.81,-1.424 1.947,0 3.078,0.837 3.078,2.281 0,0.65 -0.188,1.194 -0.587,1.55 C 2.156,6.218 1.78,6.364 0.9,6.49 l -1.758,0.251 c -1.214,0.168 -2.177,0.586 -2.827,1.194 -0.732,0.69 -1.087,1.632 -1.087,2.846 0,2.597 1.883,4.376 4.982,4.376 1.968,0 3.35,-0.503 4.626,-1.696 L 3.392,12.038 c -0.921,0.879 -1.989,1.151 -3.246,1.151 -1.757,0 -2.72,-1.004 -2.72,-2.324 0,-0.544 0.167,-1.025 0.564,-1.382 0.377,-0.335 0.985,-0.586 1.675,-0.69 L 1.361,8.542 C 2.743,8.332 3.518,7.997 4.146,7.432 4.962,6.721 5.359,5.652 5.359,4.376 5.359,1.633 3.12,0 0,0" /></g><g
           transform="translate(214.6488,11.8172)"
           id="g78"><path
             id="path80"
             style="fill:var(--ivory);fill-opacity:1;fill-rule:nonzero;stroke:none"
             d="M 0,0 -2.324,-6.615 H 2.261 Z M 3.915,-11.535 2.889,-8.541 H -2.994 L -4.02,-11.535 H -6.428 L -0.963,3.37 h 1.821 l 5.464,-14.905 z" /></g><g
           transform="translate(227.4594,0.1561)"
           id="g82"><path
             id="path84"
             style="fill:var(--ivory);fill-opacity:1;fill-rule:nonzero;stroke:none"
             d="m 0,0 c -2.239,0 -3.852,0.523 -5.275,1.969 l 1.507,1.486 c 1.088,-1.089 2.282,-1.424 3.81,-1.424 1.947,0 3.078,0.837 3.078,2.281 0,0.65 -0.188,1.194 -0.587,1.55 C 2.156,6.218 1.78,6.364 0.9,6.49 l -1.758,0.251 c -1.214,0.168 -2.177,0.586 -2.827,1.194 -0.732,0.69 -1.087,1.632 -1.087,2.846 0,2.597 1.883,4.376 4.982,4.376 1.968,0 3.35,-0.503 4.626,-1.696 L 3.392,12.038 c -0.921,0.879 -1.989,1.151 -3.246,1.151 -1.757,0 -2.72,-1.004 -2.72,-2.324 0,-0.544 0.167,-1.025 0.564,-1.382 0.377,-0.335 0.985,-0.586 1.675,-0.69 L 1.361,8.542 C 2.743,8.332 3.518,7.997 4.146,7.432 4.962,6.721 5.359,5.652 5.359,4.376 5.359,1.633 3.12,0 0,0" /></g></g></g></g></svg>